<?xml version="1.0" encoding="UTF-8" standalone="no"?>
<!-- Created with Inkscape (http://www.inkscape.org/) -->

<svg
   width="100mm"
   height="100mm"
   viewBox="0 0 100 100"
   version="1.1"
   id="svg5"
   inkscape:version="1.2 (dc2aedaf03, 2022-05-15)"
   sodipodi:docname="logo-meitocfilm.svg"
   xmlns:inkscape="http://www.inkscape.org/namespaces/inkscape"
   xmlns:sodipodi="http://sodipodi.sourceforge.net/DTD/sodipodi-0.dtd"
   xmlns="http://www.w3.org/2000/svg"
   xmlns:svg="http://www.w3.org/2000/svg">
  <sodipodi:namedview
     id="namedview7"
     pagecolor="#ffffff"
     bordercolor="#000000"
     borderopacity="0.25"
     inkscape:showpageshadow="2"
     inkscape:pageopacity="0.0"
     inkscape:pagecheckerboard="0"
     inkscape:deskcolor="#d1d1d1"
     inkscape:document-units="mm"
     showgrid="false"
     inkscape:zoom="0.98171998"
     inkscape:cx="326.46784"
     inkscape:cy="342.25646"
     inkscape:window-width="1366"
     inkscape:window-height="705"
     inkscape:window-x="-8"
     inkscape:window-y="-8"
     inkscape:window-maximized="1"
     inkscape:current-layer="layer1" />
  <defs
     id="defs2">
    <rect
       x="181.31442"
       y="360.59161"
       width="556.16675"
       height="307.62338"
       id="rect761" />
    <rect
       x="14.260686"
       y="44.819298"
       width="747.66736"
       height="442.08127"
       id="rect63" />
  </defs>
  <g
     inkscape:label="Layer 1"
     inkscape:groupmode="layer"
     id="layer1">
    <text
       xml:space="preserve"
       transform="scale(0.26458333)"
       id="text61"
       style="font-size:80px;font-family:'Franklin Gothic Demi Cond';-inkscape-font-specification:'Franklin Gothic Demi Cond';white-space:pre;shape-inside:url(#rect63);fill:#550000" />
    <g
       id="g1101"
       transform="matrix(0.74506763,0,0,0.74506763,-21.285132,-30.923683)">
      <circle
         style="fill:#000080;stroke-width:0.269498"
         id="path169"
         cx="95.676056"
         cy="108.61253"
         r="67.108002" />
      <path
         d="m 31.759833,116.59855 q 0.367708,-1.57429 1.025712,-3.50072 0.657999,-1.92644 1.50953,-4.01859 0.870883,-2.09215 1.896594,-4.24645 1.045059,-2.15431 2.148178,-4.18433 1.122475,-2.050721 2.283654,-3.852872 1.180531,-1.822864 2.322358,-3.252154 0.328999,-0.393574 0.812823,-0.973576 0.50318,-0.580002 1.103123,-1.20143 0.619296,-0.621434 1.277295,-1.222149 0.677355,-0.621428 1.354711,-1.09786 0.67735,-0.497144 1.316003,-0.787148 0.638647,-0.310711 1.18053,-0.310711 0.735411,0 1.335355,0.269285 0.619295,0.269285 1.045063,0.76643 0.445115,0.497145 0.677351,1.201436 0.251592,0.683572 0.251592,1.512147 0,0.352142 -0.05806,0.704285 -0.03869,0.352148 -0.11612,0.725004 l -2.148178,11.558643 q 0.290291,-0.47644 0.812823,-1.2843 0.522532,-0.82858 1.180531,-1.82288 0.658004,-1.015 1.374063,-2.092153 0.716059,-1.097859 1.393414,-2.112867 0.696708,-1.015002 1.2773,-1.843577 0.580587,-0.849287 0.948295,-1.367145 l 0.348351,-0.476432 q 0.348356,-0.476431 0.851531,-1.118578 0.50318,-0.642141 1.103124,-1.346432 0.619295,-0.704286 1.296646,-1.387864 0.677355,-0.683572 1.374063,-1.222143 0.696707,-0.538576 1.374063,-0.870006 0.677355,-0.352143 1.296651,-0.352143 0.464471,0 0.774119,0.22786 0.309648,0.227854 0.503175,0.621428 0.193532,0.372861 0.270944,0.890719 0.07741,0.517858 0.07741,1.077147 0,0.87 -0.135472,1.760719 -0.135472,0.890719 -0.309648,1.615723 -0.09676,0.580002 -0.270944,1.657149 -0.154824,1.077147 -0.38706,2.485723 -0.212879,1.387858 -0.464471,3.024292 -0.251588,1.61574 -0.522527,3.29361 -0.251592,1.67787 -0.522532,3.31431 -0.251587,1.63644 -0.483823,3.06573 -0.212884,1.40857 -0.406416,2.52715 -0.174176,1.11857 -0.290291,1.74 -0.05806,0.29001 -0.193533,0.78715 -0.116115,0.49715 -0.367708,0.97358 -0.232235,0.47642 -0.638647,0.82857 -0.387059,0.35214 -0.967646,0.35214 -0.309648,0 -0.599944,-0.20714 -0.270944,-0.22786 -0.50318,-0.55929 -0.212879,-0.33143 -0.348351,-0.70429 -0.116121,-0.39357 -0.135472,-0.70428 l 4.02542,-20.465828 q 0.05806,-0.290003 0.09676,-0.517863 0.03869,-0.227854 0.03869,-0.435 0,-0.227859 -0.05806,-0.414287 -0.03869,-0.186428 -0.07741,-0.352143 -0.05806,-0.186428 -0.116115,-0.33143 -0.870888,0.704286 -1.877243,1.802151 -0.986999,1.077147 -2.01271,2.423579 -1.006355,1.325719 -2.032062,2.837861 -1.006355,1.49144 -1.915947,3.0036 -0.716059,1.18073 -1.548238,2.48574 -0.812823,1.30501 -1.645002,2.63073 -0.83218,1.30501 -1.625651,2.63073 -0.774119,1.305 -1.412766,2.50643 -0.309648,0.58 -0.638647,1.49144 -0.329005,0.91143 -0.735416,1.78143 -0.38706,0.87 -0.851531,1.49144 -0.44512,0.62143 -1.025707,0.62143 -0.44512,0 -0.754768,-0.14501 -0.290296,-0.14499 -0.464471,-0.37285 -0.174176,-0.24857 -0.251588,-0.55929 -0.07741,-0.33143 -0.07741,-0.70429 0,-0.47643 0.07741,-0.95286 0.09676,-0.47643 0.193528,-0.91143 0.406416,-1.82287 0.851531,-3.62502 0.44512,-1.80214 0.909591,-3.68715 0.483823,-1.88501 0.987003,-3.89431 0.503175,-2.03003 1.025707,-4.308613 0.135472,-0.642146 0.309648,-1.429289 0.174176,-0.807862 0.328999,-1.615723 0.154824,-0.828574 0.251593,-1.595004 0.09676,-0.766431 0.09676,-1.367151 0,-0.538571 -0.07741,-0.849287 -0.07741,-0.33143 -0.290296,-0.33143 -0.716059,0 -1.50953,0.580002 -0.793476,0.559289 -1.606299,1.491434 -0.812828,0.932145 -1.606299,2.13358 -0.793471,1.201431 -1.50953,2.485724 -0.716064,1.263577 -1.335359,2.506437 -0.619296,1.24288 -1.064411,2.23717 -0.09677,0.20715 -0.290296,0.58001 -0.174175,0.35214 -0.483823,1.015 -0.290296,0.64215 -0.735416,1.65716 -0.425763,1.01501 -1.025707,2.56858 -0.580591,1.55358 -1.354711,3.70787 -0.774119,2.1543 -1.741766,5.05431 -0.174175,0.49714 -0.619295,0.80786 -0.425768,0.31071 -0.89024,0.31071 -1.006355,0 -1.490178,-0.58 -0.464472,-0.58 -0.464472,-1.42929 0,-0.37286 0.09676,-0.82858 z"
         style="font-size:80px;font-family:'Franklin Gothic Demi Cond';-inkscape-font-specification:'MV Boli Italic';white-space:pre;fill:#ffffff;stroke-width:0.512566"
         id="path914" />
      <path
         d="m 69.11109,116.24653 q 0,-0.89072 0.44512,-1.51215 0.445115,-0.62143 1.18053,-0.82857 0.212885,-0.45572 0.657999,-1.22215 0.44512,-0.78715 1.103124,-1.69858 0.657999,-0.91143 1.490178,-1.82287 0.851532,-0.93214 1.857887,-1.67786 1.025706,-0.76643 2.186885,-1.24286 1.180531,-0.47643 2.496534,-0.47643 1.122475,0 1.954655,0.29 0.832174,0.29 1.374058,0.80786 0.541883,0.51786 0.812827,1.24286 0.27094,0.70429 0.27094,1.53286 0,0.7043 -0.174176,1.34644 -0.270939,1.16 -1.006355,2.03001 -0.735411,0.87 -1.741766,1.53286 -0.987003,0.64214 -2.167534,1.07714 -1.161179,0.43501 -2.341714,0.72501 -1.161179,0.29 -2.244946,0.45572 -1.083767,0.14499 -1.877238,0.22785 -0.174176,0.37286 -0.309648,0.95286 -0.116115,0.55929 -0.116115,1.09786 0,1.20144 0.890234,1.8643 0.89024,0.66286 2.45783,0.66286 0.909592,0 1.741766,-0.20715 0.83218,-0.22786 1.567595,-0.55929 0.754763,-0.35214 1.412767,-0.74571 0.657999,-0.41429 1.199882,-0.80786 0.696707,-0.49714 1.316003,-0.82857 0.638652,-0.35215 1.122475,-0.35215 0.483824,0 0.619296,0.26929 0.135472,0.24857 0.135472,0.53857 0,0.16571 -0.01937,0.33143 0,0.145 -0.01937,0.24857 -0.09676,0.53858 -0.38706,1.07715 -0.290296,0.53857 -0.735411,0.93214 -2.01271,1.69858 -4.14154,2.42359 -2.109474,0.725 -4.509244,0.725 -0.464471,0 -1.103119,-0.0621 -0.619295,-0.0621 -1.296651,-0.24858 -0.677355,-0.18643 -1.335354,-0.53857 -0.658004,-0.35214 -1.180536,-0.93215 -0.503175,-0.58 -0.832174,-1.42929 -0.309648,-0.84929 -0.309648,-2.05072 0,-0.97358 0.251588,-2.17501 -0.251588,-0.0414 -0.483824,-0.26929 -0.212884,-0.24857 -0.212884,-0.70428 z m 12.114964,-5.73788 q 0.03869,-0.10358 0.03869,-0.18643 0,-0.0829 0,-0.18643 0,-0.55929 -0.38706,-0.82857 -0.38706,-0.29 -0.928943,-0.29 -0.851531,0 -1.683711,0.47642 -0.812823,0.47643 -1.548238,1.20144 -0.716059,0.70428 -1.277295,1.53286 -0.56124,0.80786 -0.870888,1.47072 1.393415,-0.12428 2.554594,-0.39357 1.161179,-0.29 2.01271,-0.70429 0.870888,-0.435 1.393415,-0.95286 0.541883,-0.53857 0.696707,-1.13929 z m -2.244946,-5.61359 z"
         style="font-size:80px;font-family:'Franklin Gothic Demi Cond';-inkscape-font-specification:'MV Boli Italic';white-space:pre;fill:#ffffff;stroke-width:0.512566"
         id="path916" />
      <path
         d="m 86.282708,127.33075 q 0.290296,-1.20143 0.696708,-2.79644 0.406411,-1.595 0.851531,-3.37644 0.464471,-1.78143 0.928943,-3.64573 0.464471,-1.86429 0.870883,-3.62501 0.01937,-0.0829 0.135472,-0.26929 0.116115,-0.20714 0.328999,-0.39357 0.212884,-0.20714 0.541884,-0.35214 0.328999,-0.145 0.774119,-0.145 0.329,0 0.638647,0.0829 0.309648,0.0621 0.541888,0.20715 0.25159,0.145 0.38705,0.39357 0.154827,0.22786 0.154827,0.53857 0,0.0622 0,0.14501 0,0.0621 -0.0194,0.12428 l -0.541887,2.19572 q -0.909591,3.68716 -1.857886,7.39503 -0.928943,3.70787 -1.819178,7.43646 -0.03869,0.12428 -0.11612,0.31071 -0.07741,0.18643 -0.212884,0.37286 -0.135467,0.18643 -0.329,0.31072 -0.193527,0.12428 -0.464471,0.12428 -0.503175,0 -0.890235,-0.22785 -0.38706,-0.20715 -0.658004,-0.53858 -0.270939,-0.33143 -0.406411,-0.725 -0.135472,-0.39357 -0.135472,-0.74572 0,-0.10357 0,-0.18643 0,-0.0829 0.03869,-0.18643 z m 5.051127,-21.43939 q 0.09676,-0.435 0.348356,-1.05644 0.251588,-0.62144 0.890235,-1.11858 0.309646,-0.18644 0.754763,-0.33143 0.445127,-0.16572 0.638647,-0.16572 0.19354,0 0.387067,0.145 0.21288,0.145 0.367707,0.31072 0.19353,0.20714 0.36771,0.45572 0.483817,0.0414 0.619287,0.37286 0.154827,0.33143 0.154827,0.78715 0,0.33143 -0.0581,0.60072 -0.0581,0.26928 -0.0968,0.435 -0.11612,0.435 -0.44512,0.80787 -0.329007,0.35214 -0.754774,0.62143 -0.425757,0.24857 -0.890234,0.39357 -0.46447,0.14501 -0.812827,0.14501 -0.445118,0 -0.696706,-0.16572 -0.232235,-0.16571 -0.599943,-0.70429 -0.212879,-0.31072 -0.251588,-0.47643 -0.01937,-0.18644 -0.01937,-0.31072 0,-0.22786 0.01937,-0.39358 0.03869,-0.18643 0.07741,-0.35214 z"
         style="font-size:80px;font-family:'Franklin Gothic Demi Cond';-inkscape-font-specification:'MV Boli Italic';white-space:pre;fill:#ffffff;stroke-width:0.512566"
         id="path918" />
      <path
         d="m 102.28874,115.68343 q 0,-1.74001 0.3677,-3.60431 0.36771,-1.885 0.77412,-3.60429 -0.50317,-0.0207 -1.0257,-0.16572 -0.52254,-0.145 -0.9483,-0.39357 -0.42577,-0.24857 -0.69671,-0.60072 -0.27094,-0.37286 -0.27094,-0.84929 0,-0.18643 0.0774,-0.47643 0.0774,-0.29 0.21289,-0.55928 0.15482,-0.29001 0.38706,-0.47644 0.23223,-0.20714 0.52253,-0.20714 h 2.59329 q 0.36771,0 0.50318,-0.33143 0.13548,-0.35214 0.21289,-0.68357 0.25159,-1.20143 0.46447,-2.07144 0.23224,-0.89072 0.38706,-1.49145 0.15482,-0.621425 0.23224,-0.994286 0.0968,-0.393569 0.0968,-0.621428 0,-0.269286 -0.0194,-0.517858 -0.0194,-0.248572 -0.0194,-0.683578 v -0.207141 q 0,-0.165715 0.0194,-0.435 0.0387,-0.269291 0.19353,-0.766435 0.11612,-0.393569 0.42576,-0.745718 0.30965,-0.352142 0.90959,-0.352142 0.52253,0 0.89024,0.227859 0.36771,0.227859 0.59994,0.600715 0.23224,0.372861 0.34835,0.849288 0.11612,0.476431 0.11612,0.952863 0,0.517858 -0.0968,0.932145 l -1.41277,5.800036 q 1.04506,-0.18643 1.85789,-0.35215 0.81282,-0.16571 1.62565,-0.33143 0.89024,-0.18642 1.52888,-0.35214 0.658,-0.16571 1.12247,-0.26929 0.46447,-0.12428 0.77412,-0.18643 0.32901,-0.0828 0.54189,-0.0828 0.30964,0 0.61929,0.0621 0.32901,0.0414 0.56124,0.16571 0.25159,0.12429 0.40641,0.35215 0.15483,0.22786 0.15483,0.60071 0,0.49715 -0.19354,0.89072 -0.17417,0.37286 -0.46447,0.66286 -0.29029,0.26929 -0.658,0.45572 -0.3677,0.16571 -0.73541,0.24857 -0.30965,0.0621 -0.81282,0.18643 -0.48383,0.12428 -1.08377,0.26929 -0.58059,0.145 -1.21924,0.31071 -0.63865,0.16572 -1.23859,0.33143 -0.89024,0.24857 -1.52889,0.41429 -0.61929,0.16571 -1.06441,0.24857 -0.44512,0.0829 -0.73541,0.12429 -0.27094,0.0414 -0.44512,0.0414 -0.36771,1.18072 -0.63865,2.32001 -0.27094,1.13929 -0.46447,2.13358 -0.17418,0.97357 -0.27094,1.76072 -0.0774,0.76643 -0.0774,1.20143 0,0.55929 0.0968,1.07715 0.0968,0.49714 0.329,0.87 0.23224,0.37286 0.61929,0.60072 0.40642,0.20714 1.00636,0.20714 1.02571,0 2.01271,-0.60072 0.987,-0.60071 1.87724,-1.51214 0.90959,-0.93215 1.70306,-2.03001 0.81283,-1.09786 1.49018,-2.09215 0.23224,-0.37286 0.59994,-0.37286 0.11612,0 0.27095,0.0414 0.17417,0.0414 0.329,0.145 0.15482,0.10357 0.25158,0.26928 0.11612,0.16572 0.11612,0.39358 0,0.16571 -0.0194,0.24857 -0.30965,1.28429 -0.96765,2.58929 -0.63865,1.2843 -1.316,2.5893 -0.23224,0.45572 -0.6193,0.89072 -0.36771,0.435 -0.81282,0.84929 -0.44512,0.39357 -0.92894,0.76643 -0.48383,0.35214 -0.90959,0.64215 -0.73542,0.49714 -1.6063,0.68357 -0.87089,0.18643 -1.68371,0.18643 -1.25795,0 -2.24495,-0.47644 -0.96765,-0.49714 -1.645,-1.32571 -0.658,-0.84929 -1.00636,-1.96786 -0.34835,-1.11858 -0.34835,-2.40287 z"
         style="font-size:80px;font-family:'Franklin Gothic Demi Cond';-inkscape-font-specification:'MV Boli Italic';white-space:pre;fill:#ffffff;stroke-width:0.512566"
         id="path920" />
      <path
         d="m 120.1062,108.37112 q 0.29029,-1.26358 0.89023,-2.67215 0.6193,-1.42929 1.6063,-2.8793 0.987,-1.45 2.36106,-2.837867 1.39342,-1.387854 3.2126,-2.589278 0.2903,-0.186427 0.89023,-0.393577 0.59995,-0.227847 1.2386,-0.269277 0.75476,-0.870002 2.03206,-0.870002 1.50953,0 2.53524,0.828572 1.04506,0.807854 1.72242,2.216418 0.21288,0.455717 0.38706,0.890714 0.19353,0.434997 0.30965,0.932147 0.13546,0.47643 0.21287,1.03572 0.0774,0.55929 0.0774,1.26357 0,1.63644 -0.48383,3.33501 -0.48382,1.69859 -1.37406,3.3143 -0.89023,1.61573 -2.16753,3.10716 -1.25795,1.47072 -2.80618,2.65144 -1.04506,0.80786 -2.32236,1.24286 -1.25795,0.45571 -2.82554,0.45571 -1.49018,0 -2.5933,-0.435 -1.08376,-0.41428 -1.81918,-1.20143 -0.71606,-0.78715 -1.08376,-1.88501 -0.34836,-1.09786 -0.34836,-2.44429 0,-1.305 0.34836,-2.79644 z m 3.21259,0.26929 q -0.11612,0.47643 -0.17418,0.91143 -0.0387,0.41429 -0.0387,0.80786 0,0.68357 0.15483,1.28429 0.17418,0.58 0.54188,1.015 0.36771,0.41429 0.90959,0.66286 0.56124,0.22786 1.35471,0.22786 1.47083,0 2.72877,-0.78714 1.27729,-0.80787 2.2643,-2.0093 0.987,-1.20143 1.645,-2.56858 0.67736,-1.38786 0.9483,-2.54786 0.17418,-0.72501 0.29029,-1.36715 0.13547,-0.64215 0.13547,-1.18072 0,-0.53858 -0.19352,-0.99429 -0.17418,-0.47643 -0.46448,-1.05643 -0.17418,-0.35215 -0.34835,-0.72501 -0.17418,-0.393567 -0.30965,-0.766427 -0.15482,0.29 -0.329,0.517857 -0.17417,0.20715 -0.52253,0.39357 -0.34835,0.16572 -0.9483,0.31072 -0.59994,0.145 -1.56759,0.24857 -0.63865,0.22786 -1.29665,0.70429 -0.658,0.47643 -1.29665,1.11858 -0.61929,0.64214 -1.19988,1.38786 -0.56124,0.74572 -1.02571,1.53286 -0.44512,0.76643 -0.79347,1.51215 -0.329,0.74571 -0.46447,1.36715 z"
         style="font-size:80px;font-family:'Franklin Gothic Demi Cond';-inkscape-font-specification:'MV Boli Italic';white-space:pre;fill:#ffffff;stroke-width:0.512566"
         id="path922" />
      <path
         d="m 140.93001,99.738693 q 0.3677,-1.595001 1.08376,-3.335002 0.73541,-1.739998 1.76112,-3.355699 1.02571,-1.636431 2.32236,-3.003565 1.316,-1.387861 2.86424,-2.257865 0.50318,-0.29 1.10312,-0.435 0.59994,-0.144997 1.21924,-0.144997 0.63865,0 1.18053,0.124287 0.56124,0.12428 0.9483,0.41429 0.40641,0.289997 0.63865,0.745714 0.23223,0.455707 0.23223,1.118564 0,0.497137 -0.13547,1.015004 -0.13547,0.497137 -0.40641,0.911424 -0.27094,0.39357 -0.67736,0.642137 -0.40641,0.24857 -0.94829,0.24857 -0.42577,0 -0.79347,-0.16571 -0.34836,-0.16572 -0.67736,-0.372857 -0.17418,-0.12429 -0.329,-0.20714 -0.15482,-0.10357 -0.36771,-0.186427 -0.77412,0.372857 -1.47082,0.994284 -0.67736,0.600707 -1.2773,1.346421 -0.58059,0.745717 -1.08376,1.595001 -0.48383,0.849287 -0.89024,1.698561 -0.38706,0.849284 -0.67736,1.677861 -0.27094,0.807854 -0.44511,1.491421 -0.13548,0.49715 -0.2516,1.13929 -0.0968,0.62144 -0.0968,1.22215 0,0.41429 0.0581,0.78714 0.0774,0.37286 0.25159,0.66286 0.17417,0.29001 0.46447,0.45572 0.29029,0.16572 0.71606,0.16572 0.67735,0 1.33536,-0.18643 0.67735,-0.18643 1.316,-0.47643 0.63865,-0.29001 1.23859,-0.66286 0.6193,-0.39358 1.19988,-0.78715 0.36771,-0.24857 0.73542,-0.51786 0.3677,-0.26928 0.69671,-0.47643 0.329,-0.20714 0.59993,-0.33143 0.2903,-0.145 0.50318,-0.145 0.2903,0 0.54189,0.16572 0.25159,0.14499 0.25159,0.51786 0,0.26928 -0.11612,0.60071 -0.27094,0.80786 -0.73542,1.45001 -0.46447,0.64214 -1.04505,1.16 -0.56124,0.49715 -1.21924,0.89072 -0.63865,0.39357 -1.2773,0.725 -1.19988,0.68357 -2.43848,1.03572 -1.21923,0.33143 -2.05141,0.33143 -0.27094,0 -0.63865,-0.0621 -0.36771,-0.0622 -0.63865,-0.18643 -1.56759,-0.725 -2.28365,-1.94715 -0.71606,-1.22215 -0.71606,-2.90001 0,-0.72501 0.0968,-1.51215 0.11612,-0.80786 0.32901,-1.677857 z"
         style="font-size:80px;font-family:'Franklin Gothic Demi Cond';-inkscape-font-specification:'MV Boli Italic';white-space:pre;fill:#ffffff;stroke-width:0.512566"
         id="path924" />
      <ellipse
         style="fill:#ffffff;stroke-width:0.276091"
         id="path997"
         cx="101.19391"
         cy="56.514839"
         rx="9.3380442"
         ry="9.3380003" />
      <ellipse
         style="fill:#ffffff;stroke-width:0.276091"
         id="path997-9"
         cx="127.97952"
         cy="69.516312"
         rx="9.3380442"
         ry="9.3380003" />
      <ellipse
         style="fill:#ffffff;stroke-width:0.276091"
         id="path997-3"
         cx="71.655197"
         cy="62.274563"
         rx="9.3380442"
         ry="9.3380003" />
      <ellipse
         style="fill:#ffffff;stroke-width:0.276091"
         id="path997-99"
         cx="129.03784"
         cy="144.60179"
         rx="9.3380442"
         ry="9.3380003" />
      <ellipse
         style="fill:#ffffff;stroke-width:0.276091"
         id="path997-64"
         cx="102.50574"
         cy="157.07225"
         rx="9.3380442"
         ry="9.3380003" />
      <ellipse
         style="fill:#ffffff;stroke-width:0.276091"
         id="path997-4"
         cx="73.856964"
         cy="152.35049"
         rx="9.3380442"
         ry="9.3380003" />
    </g>
  </g>
</svg>
