<?xml version="1.0" encoding="UTF-8" standalone="no"?>
<!-- Created with Inkscape (http://www.inkscape.org/) -->

<svg
   width="2in"
   height="2in"
   viewBox="0 0 192 192"
   version="1.1"
   id="svg5"
   inkscape:version="1.2 (dc2aedaf03, 2022-05-15)"
   sodipodi:docname="logo.svg"
   inkscape:export-filename="logo.png"
   inkscape:export-xdpi="40"
   inkscape:export-ydpi="40"
   xmlns:inkscape="http://www.inkscape.org/namespaces/inkscape"
   xmlns:sodipodi="http://sodipodi.sourceforge.net/DTD/sodipodi-0.dtd"
   xmlns="http://www.w3.org/2000/svg"
   xmlns:svg="http://www.w3.org/2000/svg">
  <sodipodi:namedview
     id="namedview7"
     pagecolor="#ffffff"
     bordercolor="#000000"
     borderopacity="0.25"
     inkscape:showpageshadow="2"
     inkscape:pageopacity="0.0"
     inkscape:pagecheckerboard="0"
     inkscape:deskcolor="#d1d1d1"
     inkscape:document-units="in"
     showgrid="false"
     inkscape:zoom="1.3671875"
     inkscape:cx="5.4857143"
     inkscape:cy="128"
     inkscape:window-width="1366"
     inkscape:window-height="705"
     inkscape:window-x="-8"
     inkscape:window-y="-8"
     inkscape:window-maximized="1"
     inkscape:current-layer="layer2" />
  <defs
     id="defs2">
    <rect
       x="11.702857"
       y="53.76"
       width="251.81751"
       height="152.7197"
       id="rect63" />
    <rect
       x="11.702857"
       y="53.759998"
       width="251.8175"
       height="152.7197"
       id="rect63-2" />
    <rect
       x="11.702857"
       y="53.759998"
       width="251.8175"
       height="152.7197"
       id="rect63-2-5" />
    <rect
       x="11.702857"
       y="53.759998"
       width="251.8175"
       height="152.7197"
       id="rect63-2-5-4" />
    <rect
       x="11.702857"
       y="53.759998"
       width="251.8175"
       height="152.7197"
       id="rect63-2-6" />
  </defs>
  <g
     inkscape:groupmode="layer"
     id="layer2"
     inkscape:label="Layer 2"
     style="display:inline">
    <path
       style="display:inline;fill:#ffaacc;stroke:#dddafc;stroke-width:0;stroke-dasharray:none;stroke-opacity:0.859606"
       d="m 11.144174,142.43758 c 0,0 -20.2764717,-41.86059 -6.1284949,-73.053077 C 19.163656,38.192012 23.554406,40.172487 22.578685,29.774991 21.602962,19.377494 30.384465,6.9995218 30.384465,6.9995218 c 0,0 18.585119,-14.768904 38.587432,-1.4006939 20.002311,13.3682111 -0.534253,24.1761631 11.662279,25.1664011 12.196532,0.990237 41.956054,4.45607 41.956054,4.45607 l 28.29596,-5.446308 c 0,0 15.61157,1.485357 20.00233,6.931665 4.39074,5.446308 16.09939,16.834042 16.09939,16.834042 0,0 9.75725,0.990239 1.95146,40.104631 -7.80576,39.114401 -24.88092,25.746181 -24.88092,46.046061 0,20.29988 10.73294,23.76569 -1.4636,32.67785 -12.19652,8.91214 -85.863564,-1.98047 -85.863564,-1.98047 0,0 -3.41503,18.81452 -18.538728,21.2901 -15.1237,2.4756 -28.335312,-12.92454 -33.167533,-17.55367 C 6.3197544,156.20606 11.144174,142.43758 11.144174,142.43758 Z"
       id="path1776"
       sodipodi:nodetypes="csscssccscssscssc" />
    <g
       aria-label="STORe"
       transform="matrix(1.8872858,0,0,1.7907833,-16.061035,-54.831267)"
       id="text61"
       style="font-size:36.2634px;white-space:pre;fill:#550000">
      <path
         d="m 28.772421,74.51892 -4.391271,1.68214 q -0.938457,-2.992438 -3.435107,-2.992438 -1.168645,0 -1.859208,0.672856 -0.672856,0.655149 -0.672856,1.540486 0,1.026991 0.796803,1.646727 0.81451,0.602029 3.381987,1.593606 2.33729,0.86763 3.665295,1.717554 1.345712,0.849923 2.160222,2.319583 0.832217,1.451952 0.832217,3.381987 0,3.381987 -2.337289,5.559916 -2.319583,2.160222 -6.232772,2.160222 -6.569201,0 -8.392995,-6.640027 l 4.639166,-1.328006 q 0.849923,3.647588 3.877776,3.647588 1.381125,0 2.231049,-0.708269 0.86763,-0.725976 0.86763,-1.894621 0,-0.885337 -0.602029,-1.5759 -0.602029,-0.708269 -2.762251,-1.487366 -2.779958,-0.991577 -4.143377,-1.788381 -1.363419,-0.81451 -2.248756,-2.301876 -0.885337,-1.505072 -0.885337,-3.4174 0,-3.25804 2.089395,-5.329729 2.107102,-2.089395 5.559916,-2.089395 6.303599,0 7.861792,5.630743 z"
         style="-inkscape-font-specification:'Franklin Gothic Demi Cond';fill:#550000"
         id="path309" />
      <path
         d="m 30.613921,69.260019 h 15.068435 v 4.532925 h -4.94018 V 93.429717 H 35.430154 V 73.792944 h -4.816233 z"
         style="-inkscape-font-specification:'Franklin Gothic Demi Cond';fill:#550000"
         id="path311" />
      <path
         d="m 64.55774,81.336015 q 0,12.465544 -8.764836,12.465544 -4.355858,0 -6.5692,-3.169507 -2.213342,-3.187212 -2.213342,-9.296037 0,-12.447838 8.764835,-12.447838 4.285031,0 6.533787,3.116386 2.248756,3.116386 2.248756,9.331452 z m -5.59533,0 q 0,-4.88706 -0.76139,-6.498374 -0.761389,-1.629019 -2.425823,-1.629019 -1.646726,0 -2.408116,1.629019 -0.76139,1.62902 -0.76139,6.498374 0,4.780819 0.743683,6.462959 0.76139,1.68214 2.425823,1.68214 1.646727,0 2.408117,-1.611313 0.779096,-1.611313 0.779096,-6.533786 z"
         style="-inkscape-font-specification:'Franklin Gothic Demi Cond';fill:#550000"
         id="path313" />
      <path
         d="m 68.258451,69.260019 h 7.596191 q 2.213342,0 3.381987,0.212481 1.186351,0.194774 2.390409,1.097817 1.204059,0.885337 1.876915,2.44353 0.690563,1.540487 0.690563,3.470521 0,4.532925 -3.399694,6.374426 l 4.444391,10.570923 H 79.44911 l -3.222627,-9.561639 h -2.656011 v 9.561639 h -5.312021 z m 5.312021,3.913189 v 6.781681 h 2.33729 q 3.116386,0 3.116386,-3.488228 0,-1.204058 -0.460375,-1.965448 -0.460376,-0.779096 -1.080111,-1.044697 -0.60203,-0.283308 -1.788381,-0.283308 z"
         style="-inkscape-font-specification:'Franklin Gothic Demi Cond';fill:#550000"
         id="path315" />
      <path
         d="M 104.45457,83.698089 H 93.193083 v 1.189893 q 0,2.889742 0.786179,3.867154 0.78618,0.977412 2.061065,0.977412 2.741005,0 3.080974,-3.67592 l 5.333269,0.339969 q -1.42362,7.47933 -8.520483,7.47933 -4.377108,0 -6.650654,-2.953485 -2.273547,-2.953486 -2.273547,-7.904292 0,-5.58825 2.401035,-8.520487 2.422283,-2.953485 6.48067,-2.953485 3.654672,0 6.098199,2.613516 2.46478,2.592267 2.46478,9.540395 z m -5.65199,-3.46344 q 0.02125,-0.382466 0.02125,-0.594946 0,-4.143379 -2.804749,-4.143379 -2.762252,0 -2.7835,4.738325 z"
         id="path317"
         style="fill:#550000" />
    </g>
  </g>
</svg>
