<?xml version="1.0" encoding="UTF-8" standalone="no"?>
<!-- Created with Inkscape (http://www.inkscape.org/) -->

<svg
   width="100mm"
   height="100mm"
   viewBox="0 0 100 100"
   version="1.1"
   id="svg5"
   inkscape:version="1.3 (0e150ed6c4, 2023-07-21)"
   sodipodi:docname="logo.svg"
   xml:space="preserve"
   xmlns:inkscape="http://www.inkscape.org/namespaces/inkscape"
   xmlns:sodipodi="http://sodipodi.sourceforge.net/DTD/sodipodi-0.dtd"
   xmlns="http://www.w3.org/2000/svg"
   xmlns:svg="http://www.w3.org/2000/svg"><sodipodi:namedview
     id="namedview7"
     pagecolor="#ffffff"
     bordercolor="#000000"
     borderopacity="0.25"
     inkscape:showpageshadow="2"
     inkscape:pageopacity="0.0"
     inkscape:pagecheckerboard="0"
     inkscape:deskcolor="#d1d1d1"
     inkscape:document-units="mm"
     showgrid="false"
     inkscape:zoom="0.98171998"
     inkscape:cx="326.97715"
     inkscape:cy="341.74714"
     inkscape:window-width="1366"
     inkscape:window-height="705"
     inkscape:window-x="-8"
     inkscape:window-y="-8"
     inkscape:window-maximized="1"
     inkscape:current-layer="layer1" /><defs
     id="defs2"><rect
       x="181.31442"
       y="360.59161"
       width="556.16675"
       height="307.62338"
       id="rect761" /><rect
       x="14.260686"
       y="44.819298"
       width="747.66736"
       height="442.08127"
       id="rect63" /></defs><g
     inkscape:label="Layer 1"
     inkscape:groupmode="layer"
     id="layer1"><text
       xml:space="preserve"
       transform="scale(0.26458333)"
       id="text61"
       style="font-size:80px;font-family:'Franklin Gothic Demi Cond';-inkscape-font-specification:'Franklin Gothic Demi Cond';white-space:pre;shape-inside:url(#rect63);fill:#550000" /><circle
       style="fill:#51c2be;stroke-width:0.200794;fill-opacity:1"
       id="path169"
       cx="50"
       cy="50"
       r="50" /><path
       d="M 2.3780915,55.950122 Q 2.6520588,54.77717 3.1423163,53.341849 3.6325701,51.906521 4.2670183,50.347728 4.915885,48.788935 5.680109,47.183835 6.4587487,45.578729 7.2806469,44.066227 8.1169667,42.538301 8.9821236,41.195576 9.861699,39.837419 10.712437,38.772502 q 0.245127,-0.29324 0.605608,-0.72538 0.374904,-0.432141 0.821902,-0.895147 0.461417,-0.46301 0.951671,-0.910584 0.504675,-0.463005 1.009351,-0.81798 0.504672,-0.370405 0.980511,-0.586478 0.475836,-0.231501 0.879575,-0.231501 0.547931,0 0.99493,0.200636 0.461417,0.200635 0.778643,0.571042 0.33164,0.370407 0.504672,0.895151 0.187453,0.509307 0.187453,1.126652 0,0.262369 -0.04326,0.52474 -0.02883,0.262374 -0.08652,0.540177 l -1.600538,8.611971 q 0.216287,-0.35498 0.605608,-0.956891 0.389322,-0.617348 0.879576,-1.358169 0.490257,-0.756243 1.02377,-1.558795 0.533512,-0.817979 1.038187,-1.574229 0.519095,-0.756245 0.951675,-1.373589 0.432577,-0.632777 0.706544,-1.018616 l 0.259545,-0.354974 q 0.259549,-0.354973 0.634448,-0.833416 0.374903,-0.478439 0.821902,-1.003183 0.461417,-0.524741 0.966089,-1.034053 0.504675,-0.509307 1.02377,-0.910579 0.519094,-0.401275 1.02377,-0.648213 0.504675,-0.262371 0.966093,-0.262371 0.346062,0 0.576771,0.169772 0.230708,0.169766 0.374899,0.463005 0.144194,0.277807 0.201872,0.663646 0.05767,0.38584 0.05767,0.802548 0,0.648209 -0.100936,1.311854 -0.100935,0.663646 -0.230708,1.203823 -0.07209,0.432141 -0.201872,1.234688 -0.115354,0.802548 -0.288386,1.852032 -0.158609,1.034048 -0.346062,2.253302 -0.18745,1.203836 -0.389318,2.453962 -0.187453,1.250127 -0.389322,2.469386 -0.187449,1.219258 -0.360481,2.284176 -0.158612,1.04948 -0.302807,1.882897 -0.129773,0.833411 -0.216286,1.296418 -0.04326,0.216077 -0.144196,0.58648 -0.08651,0.37041 -0.273967,0.725383 -0.173031,0.354965 -0.475835,0.617341 -0.288385,0.262368 -0.720962,0.262368 -0.230708,0 -0.446999,-0.154334 -0.201871,-0.169771 -0.374903,-0.416708 -0.158609,-0.246938 -0.259545,-0.524744 -0.08652,-0.293236 -0.100936,-0.524736 l 2.999211,-15.248426 q 0.04326,-0.216072 0.07209,-0.385843 0.02883,-0.169767 0.02883,-0.324105 0,-0.16977 -0.04326,-0.308672 -0.02883,-0.138901 -0.05767,-0.26237 -0.04326,-0.138901 -0.08651,-0.246938 -0.64887,0.524741 -1.398673,1.342725 -0.735381,0.802547 -1.499605,1.80573 -0.749802,0.98775 -1.514024,2.114398 -0.749802,1.111224 -1.42751,2.237886 -0.533512,0.879723 -1.153542,1.852044 -0.605608,0.972321 -1.225637,1.960072 -0.620031,0.97232 -1.21122,1.960071 -0.576771,0.972314 -1.052607,1.86746 -0.230708,0.43214 -0.475835,1.111224 -0.245131,0.679077 -0.547934,1.327286 -0.288386,0.648209 -0.634449,1.111223 -0.331644,0.463008 -0.764221,0.463008 -0.331644,0 -0.562353,-0.108042 -0.21629,-0.108028 -0.346062,-0.277799 -0.129773,-0.185201 -0.18745,-0.416709 -0.05768,-0.246938 -0.05768,-0.524743 0,-0.354973 0.05768,-0.709946 0.07209,-0.354972 0.144191,-0.679077 0.302808,-1.358161 0.634448,-2.700885 0.331645,-1.342716 0.677707,-2.747176 0.360481,-1.40446 0.735384,-2.901524 0.3749,-1.51251 0.764221,-3.210208 0.100936,-0.478442 0.230709,-1.064917 0.129773,-0.601912 0.245126,-1.203823 0.115355,-0.617344 0.187454,-1.188386 0.07209,-0.571043 0.07209,-1.01862 0,-0.401272 -0.05768,-0.632776 -0.05767,-0.246938 -0.21629,-0.246938 -0.533512,0 -1.124702,0.432141 -0.591193,0.416708 -1.196801,1.111219 -0.605612,0.694511 -1.196802,1.589661 -0.591189,0.895148 -1.124702,1.852033 -0.533516,0.94145 -0.9949323,1.867465 -0.4614174,0.92603 -0.7930582,1.666843 -0.0721,0.154341 -0.2162901,0.432147 -0.1297722,0.262368 -0.3604809,0.756243 -0.2162901,0.478445 -0.5479346,1.234697 -0.3172223,0.756251 -0.7642211,1.913765 -0.4325796,1.157523 -1.0093513,2.762614 -0.576771,1.6051 -1.2977335,3.765803 -0.1297721,0.370403 -0.4614167,0.60191 -0.3172259,0.2315 -0.663289,0.2315 -0.7498025,0 -1.1102834,-0.432139 -0.346063,-0.432139 -0.346063,-1.064918 0,-0.277805 0.072093,-0.617348 z"
       style="font-size:80px;font-family:'Franklin Gothic Demi Cond';-inkscape-font-specification:'MV Boli Italic';white-space:pre;fill:#ffffff;stroke-width:0.381896"
       id="path914" /><path
       d="m 30.207304,55.687844 q 0,-0.663647 0.331645,-1.126654 0.33164,-0.463008 0.879574,-0.617341 0.158614,-0.339542 0.490254,-0.910585 0.331644,-0.586479 0.821902,-1.265556 0.490254,-0.679077 1.110283,-1.358162 0.634449,-0.694507 1.384252,-1.250119 0.76422,-0.571042 1.629377,-0.926015 0.879575,-0.354972 1.860087,-0.354972 0.83632,0 1.45635,0.216069 0.620026,0.21607 1.023766,0.601911 0.40374,0.38584 0.605611,0.926014 0.201869,0.524744 0.201869,1.142085 0,0.524751 -0.129773,1.003189 -0.201868,0.864278 -0.749803,1.512494 -0.547931,0.648209 -1.297733,1.142085 -0.735384,0.478437 -1.61496,0.802542 -0.865156,0.324112 -1.744735,0.540181 -0.865157,0.21607 -1.672636,0.339542 -0.80748,0.108028 -1.39867,0.169764 -0.129773,0.277806 -0.230708,0.709945 -0.08651,0.416709 -0.08651,0.81798 0,0.895154 0.663285,1.38903 0.663289,0.493875 1.831249,0.493875 0.677708,0 1.297734,-0.15434 0.62003,-0.169772 1.167964,-0.416709 0.562349,-0.262368 1.052607,-0.555605 0.490254,-0.308674 0.893993,-0.60191 0.519094,-0.370403 0.980511,-0.617341 0.475839,-0.262375 0.83632,-0.262375 0.360482,0 0.461418,0.200639 0.100935,0.185201 0.100935,0.401271 0,0.123465 -0.01443,0.246938 0,0.108035 -0.01443,0.185201 -0.07209,0.401279 -0.288385,0.80255 -0.216291,0.401271 -0.547931,0.694507 -1.499605,1.265557 -3.085728,1.805739 -1.571701,0.540174 -3.359692,0.540174 -0.346062,0 -0.821898,-0.04627 -0.461416,-0.04627 -0.966092,-0.185209 -0.504676,-0.138903 -0.99493,-0.401271 -0.490257,-0.262368 -0.879579,-0.694515 -0.374899,-0.432139 -0.620026,-1.064917 -0.230708,-0.632779 -0.230708,-1.527926 0,-0.725382 0.18745,-1.620529 -0.18745,-0.03085 -0.360482,-0.200639 -0.158613,-0.185202 -0.158613,-0.524737 z m 9.026468,-4.275109 q 0.02883,-0.07717 0.02883,-0.138903 0,-0.06177 0,-0.138903 0,-0.416709 -0.288386,-0.617341 -0.288386,-0.216069 -0.692125,-0.216069 -0.634448,0 -1.254479,0.354965 -0.605608,0.354972 -1.153542,0.895154 -0.533512,0.524736 -0.951671,1.142084 -0.418162,0.601911 -0.64887,1.095786 1.038188,-0.0926 1.903345,-0.293236 0.865157,-0.21607 1.499605,-0.524744 0.648871,-0.324104 1.038189,-0.709945 0.403739,-0.401271 0.519093,-0.848848 z m -1.672637,-4.182504 z"
       style="font-size:80px;font-family:'Franklin Gothic Demi Cond';-inkscape-font-specification:'MV Boli Italic';white-space:pre;fill:#ffffff;stroke-width:0.381896"
       id="path916" /><path
       d="m 43.001321,63.946337 q 0.21629,-0.895146 0.519094,-2.083537 0.302804,-1.188383 0.634449,-2.515676 0.346062,-1.327286 0.692125,-2.716315 0.346062,-1.389022 0.648867,-2.700878 0.01443,-0.06177 0.100935,-0.200639 0.08651,-0.154334 0.245127,-0.293236 0.158613,-0.154334 0.40374,-0.262369 0.245127,-0.108034 0.576771,-0.108034 0.245127,0 0.475835,0.06177 0.230709,0.04627 0.403744,0.15434 0.187451,0.108035 0.288378,0.293237 0.115357,0.169771 0.115357,0.401271 0,0.04634 0,0.108042 0,0.04627 -0.01445,0.0926 l -0.403742,1.63596 q -0.677707,2.747184 -1.384251,5.509797 -0.692125,2.762614 -1.355411,5.540666 -0.02883,0.0926 -0.08652,0.2315 -0.05768,0.138903 -0.158613,0.277806 -0.100932,0.138903 -0.245127,0.231507 -0.144191,0.0926 -0.346062,0.0926 -0.3749,0 -0.663286,-0.169763 -0.288385,-0.154341 -0.490257,-0.401279 -0.201868,-0.246938 -0.302804,-0.540174 -0.100936,-0.293236 -0.100936,-0.555612 0,-0.07717 0,-0.138903 0,-0.06177 0.02883,-0.138903 z m 3.763431,-15.973795 q 0.07209,-0.324105 0.259549,-0.78712 0.18745,-0.463014 0.663285,-0.833417 0.230707,-0.138911 0.56235,-0.246938 0.331649,-0.123473 0.475835,-0.123473 0.1442,0 0.288391,0.108035 0.15861,0.108035 0.273966,0.231507 0.144193,0.154334 0.273969,0.339543 0.360477,0.03085 0.461411,0.277806 0.115357,0.246937 0.115357,0.58648 0,0.246937 -0.04329,0.447577 -0.04329,0.200631 -0.07212,0.324104 -0.08652,0.324104 -0.331645,0.601918 -0.245132,0.262368 -0.562358,0.463007 -0.317217,0.185202 -0.663284,0.293236 -0.346062,0.108043 -0.605611,0.108043 -0.331643,0 -0.519093,-0.123473 -0.173031,-0.123465 -0.446998,-0.524744 -0.15861,-0.231507 -0.187451,-0.354972 -0.01443,-0.138911 -0.01443,-0.231508 0,-0.169771 0.01443,-0.293243 0.02883,-0.138903 0.05768,-0.262368 z"
       style="font-size:80px;font-family:'Franklin Gothic Demi Cond';-inkscape-font-specification:'MV Boli Italic';white-space:pre;fill:#ffffff;stroke-width:0.381896"
       id="path918" /><path
       d="m 54.926897,55.268296 q 0,-1.296425 0.273961,-2.685455 0.273969,-1.404452 0.576772,-2.685439 -0.374895,-0.01542 -0.764216,-0.123473 -0.389327,-0.108035 -0.706547,-0.293236 -0.317228,-0.185202 -0.519096,-0.447577 -0.201869,-0.277806 -0.201869,-0.632779 0,-0.138903 0.05767,-0.354972 0.05767,-0.21607 0.158618,-0.416702 0.115351,-0.216077 0.288386,-0.35498 0.173027,-0.154333 0.38932,-0.154333 h 1.932176 q 0.273969,0 0.374903,-0.246938 0.100942,-0.262368 0.158618,-0.509306 0.187451,-0.895146 0.346061,-1.543363 0.173035,-0.663646 0.288386,-1.111231 0.115352,-0.463004 0.173035,-0.74081 0.07212,-0.293236 0.07212,-0.463006 0,-0.200636 -0.01445,-0.385839 -0.01445,-0.185203 -0.01445,-0.509312 v -0.154334 q 0,-0.123469 0.01445,-0.324105 0.02883,-0.20064 0.144193,-0.571046 0.08652,-0.293235 0.31722,-0.55561 0.23071,-0.262369 0.677706,-0.262369 0.38932,0 0.663289,0.16977 0.273969,0.16977 0.446996,0.447573 0.173034,0.277807 0.259544,0.632777 0.08652,0.354974 0.08652,0.709948 0,0.385839 -0.07212,0.694511 l -1.052609,4.321419 q 0.77864,-0.138903 1.384253,-0.262376 0.605606,-0.123465 1.21122,-0.246938 0.663289,-0.138895 1.139119,-0.262368 0.490254,-0.123465 0.836316,-0.200639 0.346061,-0.0926 0.576771,-0.138903 0.245135,-0.06169 0.403745,-0.06169 0.230703,0 0.461413,0.04627 0.245135,0.03085 0.418162,0.123465 0.187451,0.0926 0.302803,0.262376 0.115359,0.169771 0.115359,0.447569 0,0.370411 -0.144201,0.663647 -0.129768,0.277806 -0.346061,0.493876 -0.216286,0.200639 -0.490255,0.339542 -0.273961,0.123465 -0.54793,0.185201 -0.23071,0.04627 -0.605606,0.138903 -0.360486,0.0926 -0.807482,0.20064 -0.432579,0.108034 -0.908416,0.231499 -0.475838,0.123473 -0.922834,0.246938 -0.663289,0.185202 -1.139126,0.308674 -0.461413,0.123465 -0.793057,0.185202 -0.331645,0.06177 -0.547931,0.0926 -0.201868,0.03085 -0.331644,0.03085 -0.273969,0.879716 -0.475838,1.728564 -0.201868,0.848848 -0.346061,1.589662 -0.129776,0.725375 -0.201869,1.311855 -0.05767,0.571042 -0.05767,0.895147 0,0.416709 0.07212,0.802549 0.07212,0.370403 0.245127,0.648209 0.173034,0.277806 0.461413,0.447577 0.30281,0.154334 0.749806,0.154334 0.764223,0 1.499605,-0.447577 0.735382,-0.44757 1.398671,-1.126647 0.677706,-0.694515 1.268895,-1.512495 0.605613,-0.81798 1.110285,-1.558793 0.173034,-0.277806 0.446995,-0.277806 0.08652,0 0.201877,0.03085 0.129768,0.03085 0.245127,0.108035 0.115351,0.07717 0.187444,0.200632 0.08652,0.123472 0.08652,0.293243 0,0.123465 -0.01445,0.185202 -0.23071,0.956883 -0.720965,1.929196 -0.475837,0.95689 -0.980509,1.929204 -0.173034,0.339542 -0.46142,0.663646 -0.273969,0.324105 -0.605606,0.632779 -0.331645,0.293236 -0.692123,0.571042 -0.360486,0.262368 -0.677706,0.478445 -0.547938,0.370403 -1.196802,0.509306 -0.648872,0.138903 -1.254478,0.138903 -0.937258,0 -1.67264,-0.35498 -0.720964,-0.370403 -1.225636,-0.987744 -0.490255,-0.632778 -0.749806,-1.466189 -0.259545,-0.833417 -0.259545,-1.7903 z"
       style="font-size:80px;font-family:'Franklin Gothic Demi Cond';-inkscape-font-specification:'MV Boli Italic';white-space:pre;fill:#ffffff;stroke-width:0.381896"
       id="path920" /><path
       d="m 68.20211,49.820131 q 0.216285,-0.941453 0.663281,-1.990933 0.461421,-1.064918 1.196802,-2.145273 0.735382,-1.080348 1.75915,-2.114403 1.038192,-1.034045 2.393604,-1.929187 0.216293,-0.138901 0.663282,-0.293242 0.447003,-0.169761 0.92284,-0.200629 0.562348,-0.648211 1.514023,-0.648211 1.124702,0 1.888925,0.617343 0.77864,0.601905 1.283319,1.651381 0.15861,0.33954 0.288386,0.663642 0.144193,0.324102 0.23071,0.694513 0.100927,0.354972 0.158603,0.771681 0.05767,0.416709 0.05767,0.941445 0,1.219259 -0.360486,2.484808 -0.360479,1.265565 -1.023768,2.469378 -0.663281,1.203828 -1.614956,2.315044 -0.937258,1.095786 -2.090794,1.975502 -0.77864,0.601911 -1.730315,0.926015 -0.937258,0.339535 -2.105219,0.339535 -1.110284,0 -1.932183,-0.324105 -0.807475,-0.308666 -1.355413,-0.895146 -0.533513,-0.58648 -0.807474,-1.40446 -0.259552,-0.81798 -0.259552,-1.821162 0,-0.972313 0.259552,-2.083536 z m 2.393597,0.200639 q -0.08652,0.354972 -0.129776,0.679077 -0.02883,0.308674 -0.02883,0.60191 0,0.509306 0.115358,0.956883 0.129776,0.432139 0.403738,0.756244 0.273968,0.308674 0.677706,0.493875 0.418161,0.169771 1.00935,0.169771 1.095868,0 2.033119,-0.586472 0.951667,-0.601918 1.687056,-1.497065 0.735382,-0.895146 1.225636,-1.913765 0.504679,-1.03405 0.706548,-1.898328 0.129776,-0.540182 0.216286,-1.01862 0.100934,-0.478445 0.100934,-0.879716 0,-0.401278 -0.144185,-0.740813 -0.129776,-0.354973 -0.346069,-0.787112 -0.129776,-0.262376 -0.259545,-0.540181 -0.129776,-0.293234 -0.23071,-0.57104 -0.115351,0.216069 -0.245127,0.385838 -0.129769,0.154341 -0.38932,0.293236 -0.259545,0.123473 -0.706548,0.231508 -0.446996,0.108035 -1.167961,0.185201 -0.475837,0.169771 -0.966092,0.524744 -0.490254,0.354972 -0.966092,0.833418 -0.461412,0.478437 -0.893991,1.034049 -0.418162,0.555612 -0.764224,1.142085 -0.331644,0.571042 -0.591188,1.126654 -0.245128,0.555604 -0.346062,1.018619 z"
       style="font-size:80px;font-family:'Franklin Gothic Demi Cond';-inkscape-font-specification:'MV Boli Italic';white-space:pre;fill:#ffffff;stroke-width:0.381896"
       id="path922" /><path
       d="m 83.717257,43.388389 q 0.273961,-1.188384 0.807474,-2.484802 0.54793,-1.296417 1.312154,-2.500223 0.764223,-1.219252 1.730315,-2.237859 0.980509,-1.03405 2.134052,-1.682262 0.374903,-0.21607 0.821899,-0.324105 0.446996,-0.108032 0.908417,-0.108032 0.475837,0 0.879574,0.0926 0.418162,0.0926 0.706548,0.308674 0.302803,0.216067 0.475837,0.555607 0.173027,0.339533 0.173027,0.833406 0,0.370401 -0.100934,0.756247 -0.100934,0.3704 -0.302803,0.679072 -0.201868,0.293237 -0.504679,0.478436 -0.302803,0.185201 -0.70654,0.185201 -0.317227,0 -0.591189,-0.123465 -0.259552,-0.123472 -0.504679,-0.277804 -0.129776,-0.0926 -0.245127,-0.154333 -0.115351,-0.07717 -0.273969,-0.138901 -0.576772,0.277804 -1.09586,0.740809 -0.504679,0.447568 -0.951675,1.003175 -0.432579,0.55561 -0.807475,1.188384 -0.360486,0.632776 -0.663289,1.265542 -0.288386,0.632774 -0.504679,1.25012 -0.201868,0.601906 -0.331637,1.11121 -0.100942,0.37041 -0.187459,0.848848 -0.07212,0.463015 -0.07212,0.910584 0,0.308674 0.04329,0.586473 0.05767,0.277806 0.187452,0.493875 0.129768,0.216077 0.346061,0.339543 0.216286,0.123472 0.533513,0.123472 0.504672,0 0.994934,-0.138903 0.504671,-0.138903 0.980509,-0.354972 0.475837,-0.216077 0.922833,-0.493876 0.461421,-0.293244 0.893992,-0.58648 0.273969,-0.185201 0.547938,-0.385841 0.273961,-0.200631 0.519096,-0.354972 0.245127,-0.154333 0.446988,-0.246938 0.216293,-0.108035 0.374903,-0.108035 0.216293,0 0.403745,0.123473 0.187451,0.108027 0.187451,0.385841 0,0.200631 -0.08652,0.447569 -0.201868,0.601911 -0.547937,1.080356 -0.346062,0.478437 -0.778633,0.864278 -0.418162,0.370411 -0.908417,0.663647 -0.475837,0.293236 -0.951674,0.540174 -0.893992,0.509306 -1.816833,0.771681 -0.908409,0.246938 -1.528439,0.246938 -0.201869,0 -0.475838,-0.04627 -0.273968,-0.04634 -0.475837,-0.138903 -1.167961,-0.540174 -1.701474,-1.450758 -0.533513,-0.910584 -0.533513,-2.160704 0,-0.540181 0.07212,-1.126654 0.08652,-0.60191 0.245134,-1.250117 z"
       style="font-size:80px;font-family:'Franklin Gothic Demi Cond';-inkscape-font-specification:'MV Boli Italic';white-space:pre;fill:#ffffff;stroke-width:0.381896"
       id="path924" /><ellipse
       style="fill:#ffffff;stroke-width:0.205706"
       id="path997"
       cx="54.111176"
       cy="11.183694"
       rx="6.9574742"
       ry="6.9574418" /><ellipse
       style="fill:#ffffff;stroke-width:0.205706"
       id="path997-9"
       cx="74.068268"
       cy="20.87067"
       rx="6.9574742"
       ry="6.9574418" /><ellipse
       style="fill:#ffffff;stroke-width:0.205706"
       id="path997-3"
       cx="32.102837"
       cy="15.475078"
       rx="6.9574742"
       ry="6.9574418" /><ellipse
       style="fill:#ffffff;stroke-width:0.205706"
       id="path997-99"
       cx="74.856789"
       cy="76.81443"
       rx="6.9574742"
       ry="6.9574418" /><ellipse
       style="fill:#ffffff;stroke-width:0.205706"
       id="path997-64"
       cx="55.088573"
       cy="86.105766"
       rx="6.9574742"
       ry="6.9574418" /><ellipse
       style="fill:#ffffff;stroke-width:0.205706"
       id="path997-4"
       cx="33.743301"
       cy="82.587738"
       rx="6.9574742"
       ry="6.9574418" /></g></svg>
