<?xml version="1.0" encoding="UTF-8" standalone="no"?>
<!-- Created with Inkscape (http://www.inkscape.org/) -->

<svg
   width="400mm"
   height="100mm"
   viewBox="0 0 400 100"
   version="1.1"
   id="svg5"
   inkscape:version="1.3 (0e150ed6c4, 2023-07-21)"
   sodipodi:docname="long-logo.svg"
   xml:space="preserve"
   xmlns:inkscape="http://www.inkscape.org/namespaces/inkscape"
   xmlns:sodipodi="http://sodipodi.sourceforge.net/DTD/sodipodi-0.dtd"
   xmlns="http://www.w3.org/2000/svg"
   xmlns:svg="http://www.w3.org/2000/svg"><sodipodi:namedview
     id="namedview7"
     pagecolor="#ffffff"
     bordercolor="#000000"
     borderopacity="0.25"
     inkscape:showpageshadow="2"
     inkscape:pageopacity="0.0"
     inkscape:pagecheckerboard="0"
     inkscape:deskcolor="#d1d1d1"
     inkscape:document-units="mm"
     showgrid="false"
     inkscape:zoom="0.24543"
     inkscape:cx="1132.7059"
     inkscape:cy="723.22048"
     inkscape:window-width="1366"
     inkscape:window-height="705"
     inkscape:window-x="-8"
     inkscape:window-y="-8"
     inkscape:window-maximized="1"
     inkscape:current-layer="layer1" /><defs
     id="defs2"><rect
       x="409.1153"
       y="106.60046"
       width="2028.3499"
       height="437.32227"
       id="rect1" /><rect
       x="181.31442"
       y="360.59161"
       width="556.16675"
       height="307.62338"
       id="rect761" /><rect
       x="14.260686"
       y="44.819298"
       width="747.66736"
       height="442.08127"
       id="rect63" /></defs><g
     inkscape:label="Layer 1"
     inkscape:groupmode="layer"
     id="layer1"><g
       id="g13"
       style="fill:#50c1bf;fill-opacity:1"><path
         id="path169"
         style="fill:#50c1bf;stroke-width:0.200794;fill-opacity:1"
         d="m 283.22416,49.999997 a 50,50 0 0 1 -50,50.000003 50,50 0 0 1 -50,-50.000003 50,50 0 0 1 50,-49.99999670850084 50,50 0 0 1 50,49.99999670850084 z" /><path
         style="font-style:italic;font-weight:bold;font-size:213.333px;font-family:Arial;-inkscape-font-specification:'Arial Italic';white-space:pre;fill:#50c1bf;fill-opacity:1"
         d="m 505.67758,299.27849 h -29.79162 l -5.52082,-127.60396 -24.2708,127.60396 H 417.76105 L 449.636,146.5704 h 44.7916 l 4.68749,106.979 52.08325,-106.979 h 45.31243 l -31.97912,152.70809 h -28.64578 l 30.10411,-126.66646 z m 94.06235,-45.93742 q 0,-30.72912 17.29164,-48.95826 17.39581,-18.3333 45.62493,-18.3333 24.47913,0 38.22911,13.54164 13.74997,13.43748 13.74997,36.24995 0,26.87495 -17.18747,46.45825 -17.18747,19.58331 -46.04159,19.58331 -15.62498,0 -27.70829,-6.24999 -12.08331,-6.24999 -18.02081,-17.70831 -5.93749,-11.45831 -5.93749,-24.58329 z m 85.2082,-21.35413 q 0,-10.62499 -6.24999,-16.97914 -6.14582,-6.45833 -15.93747,-6.45833 -9.68749,0 -17.18748,6.04166 -7.49998,5.93749 -11.66664,17.39581 -4.16666,11.35414 -4.16666,20.93746 0,11.87498 6.45832,18.85414 6.45832,6.97915 16.24997,6.97915 12.29165,0 20.62497,-10.52081 11.87498,-14.89581 11.87498,-36.24994 z m 96.04149,67.29155 H 755.2605 L 733.07303,188.65367 h 29.37496 l 7.81248,48.22909 q 3.22917,19.5833 3.85416,26.04163 0.83334,-1.77083 7.18749,-13.43748 6.45833,-11.77082 7.91666,-14.16665 l 27.49995,-46.66659 h 32.29162 z m 95.2082,-152.70809 h 29.89579 l -5.62499,27.0833 h -29.89579 z m -8.74998,42.08327 h 29.89578 l -23.12496,110.62482 h -29.89579 z m 143.85396,64.58323 h -74.99989 q -0.10417,1.77083 -0.10417,2.70833 0,11.04165 6.24999,17.81247 6.35416,6.77082 15.41664,6.77082 14.89581,0 23.22913,-15.41664 l 26.7708,4.47916 q -7.8125,16.14581 -20.93748,24.2708 -13.02081,8.02082 -29.27078,8.02082 -22.29163,0 -36.24994,-14.06248 -13.95832,-14.16664 -13.95832,-37.39577 0,-22.7083 12.60415,-40.41661 17.18747,-23.95829 49.06242,-23.95829 20.31247,0 32.29165,12.60415 11.9791,12.49998 11.9791,35.10411 0,10.83331 -2.0833,19.47913 z m -25.20831,-18.22914 q 0.10417,-1.97916 0.10417,-3.02082 0,-12.29165 -5.52083,-18.43748 -5.52082,-6.14582 -14.79164,-6.14582 -9.27082,0 -16.66664,6.97916 -7.29165,6.97915 -9.89582,20.62496 z m 43.02081,35.41661 h 29.5833 l -6.0417,28.85412 h -29.5833 z m 474.1659,0 h 29.5833 l -6.0417,28.85412 h -29.5833 z m 75.9374,-81.7707 h 28.3332 l -2.9166,14.37498 q 10.625,-9.16665 19.7916,-13.02081 9.2708,-3.95833 19.4792,-3.95833 13.6458,0 21.4583,7.81249 7.9166,7.81248 7.9166,20.72913 0,5.83332 -3.4375,22.0833 l -13.0208,62.60406 h -29.8958 l 13.125,-62.8124 q 2.9167,-14.06247 2.9167,-16.7708 0,-5.72916 -3.4375,-8.95832 -3.3334,-3.33333 -9.375,-3.33333 -6.5625,0 -14.5833,5.52083 -8.0209,5.52082 -12.6042,14.58331 -3.3333,6.45832 -7.5,26.35412 l -9.4791,45.41659 h -29.8958 z m 214.4787,64.58323 h -74.9998 q -0.1042,1.77083 -0.1042,2.70833 0,11.04165 6.25,17.81247 6.3541,6.77082 15.4166,6.77082 14.8958,0 23.2292,-15.41664 l 26.7708,4.47916 q -7.8125,16.14581 -20.9375,24.2708 -13.0208,8.02082 -29.2708,8.02082 -22.2916,0 -36.2499,-14.06248 -13.9584,-14.16664 -13.9584,-37.39577 0,-22.7083 12.6042,-40.41661 17.1875,-23.95829 49.0624,-23.95829 20.3125,0 32.2916,12.60415 11.9792,12.49998 11.9792,35.10411 0,10.83331 -2.0834,19.47913 z m -25.2082,-18.22914 q 0.1041,-1.97916 0.1041,-3.02082 0,-12.29165 -5.5208,-18.43748 -5.5208,-6.14582 -14.7916,-6.14582 -9.2709,0 -16.6667,6.97916 -7.2916,6.97915 -9.8958,20.62496 z m 43.6457,-24.16662 4.5833,-22.18747 h 14.5833 l 3.6459,-17.7083 34.2707,-20.62497 -8.0208,38.33327 h 18.2292 l -4.5834,22.18747 h -18.3333 l -9.6875,46.35409 q -2.6041,12.60414 -2.6041,14.37498 0,3.43749 2.1875,5.41665 2.1875,1.875 7.9166,1.875 1.9792,0 9.8959,-0.72917 l -4.6875,22.18747 q -7.7084,1.5625 -15.8333,1.5625 -15.8334,0 -23.0208,-6.04166 -7.1875,-6.14582 -7.1875,-16.97914 0,-5.10416 3.8541,-23.54163 l 9.2708,-44.47909 z"
         id="text1"
         transform="matrix(0.26458333,0,0,0.26458333,-103.58266,-3.6412455)"
         aria-label="Movie.       .net" /></g><text
       xml:space="preserve"
       transform="scale(0.26458333)"
       id="text61"
       style="font-size:80px;font-family:'Franklin Gothic Demi Cond';-inkscape-font-specification:'Franklin Gothic Demi Cond';white-space:pre;shape-inside:url(#rect63);display:inline;fill:#550000" /><path
       d="m 185.60225,55.950122 q 0.27397,-1.172952 0.76423,-2.608273 0.49025,-1.435328 1.1247,-2.994121 0.64887,-1.558793 1.41309,-3.163893 0.77864,-1.605106 1.60054,-3.117608 0.83632,-1.527926 1.70148,-2.870651 0.87957,-1.358157 1.73031,-2.423074 0.24513,-0.29324 0.60561,-0.72538 0.3749,-0.432141 0.8219,-0.895147 0.46142,-0.46301 0.95167,-0.910584 0.50468,-0.463005 1.00935,-0.81798 0.50467,-0.370405 0.98051,-0.586478 0.47584,-0.231501 0.87958,-0.231501 0.54793,0 0.99493,0.200636 0.46141,0.200635 0.77864,0.571042 0.33164,0.370407 0.50467,0.895151 0.18745,0.509307 0.18745,1.126652 0,0.262369 -0.0433,0.52474 -0.0288,0.262374 -0.0865,0.540177 l -1.60054,8.611971 q 0.21629,-0.35498 0.60561,-0.956891 0.38932,-0.617348 0.87957,-1.358169 0.49026,-0.756243 1.02377,-1.558795 0.53352,-0.817979 1.03819,-1.574229 0.5191,-0.756245 0.95168,-1.373589 0.43257,-0.632777 0.70654,-1.018616 l 0.25955,-0.354974 q 0.25954,-0.354973 0.63444,-0.833416 0.37491,-0.478439 0.82191,-1.003183 0.46141,-0.524741 0.96609,-1.034053 0.50467,-0.509307 1.02377,-0.910579 0.51909,-0.401275 1.02376,-0.648213 0.50468,-0.262371 0.9661,-0.262371 0.34606,0 0.57677,0.169772 0.23071,0.169766 0.3749,0.463005 0.14419,0.277807 0.20187,0.663646 0.0577,0.38584 0.0577,0.802548 0,0.648209 -0.10094,1.311854 -0.10094,0.663646 -0.23071,1.203823 -0.0721,0.432141 -0.20187,1.234688 -0.11536,0.802548 -0.28839,1.852032 -0.15861,1.034048 -0.34606,2.253302 -0.18745,1.203836 -0.38932,2.453962 -0.18745,1.250127 -0.38932,2.469386 -0.18745,1.219258 -0.36048,2.284176 -0.15861,1.04948 -0.30281,1.882897 -0.12977,0.833411 -0.21628,1.296418 -0.0433,0.216077 -0.1442,0.58648 -0.0865,0.37041 -0.27397,0.725383 -0.17303,0.354965 -0.47583,0.617341 -0.28839,0.262368 -0.72096,0.262368 -0.23071,0 -0.447,-0.154334 -0.20187,-0.169771 -0.3749,-0.416708 -0.15861,-0.246938 -0.25955,-0.524744 -0.0865,-0.293236 -0.10094,-0.524736 l 2.99921,-15.248426 q 0.0433,-0.216072 0.0721,-0.385843 0.0288,-0.169767 0.0288,-0.324105 0,-0.16977 -0.0433,-0.308672 -0.0288,-0.138901 -0.0577,-0.26237 -0.0433,-0.138901 -0.0865,-0.246938 -0.64887,0.524741 -1.39868,1.342725 -0.73538,0.802547 -1.4996,1.80573 -0.7498,0.98775 -1.51403,2.114398 -0.7498,1.111224 -1.42751,2.237886 -0.53351,0.879723 -1.15354,1.852044 -0.60561,0.972321 -1.22564,1.960072 -0.62003,0.97232 -1.21122,1.960071 -0.57677,0.972314 -1.0526,1.86746 -0.23071,0.43214 -0.47584,1.111224 -0.24513,0.679077 -0.54793,1.327286 -0.28839,0.648209 -0.63445,1.111223 -0.33164,0.463008 -0.76422,0.463008 -0.33165,0 -0.56235,-0.108042 -0.21629,-0.108028 -0.34607,-0.277799 -0.12977,-0.185201 -0.18745,-0.416709 -0.0577,-0.246938 -0.0577,-0.524743 0,-0.354973 0.0577,-0.709946 0.0721,-0.354972 0.1442,-0.679077 0.3028,-1.358161 0.63444,-2.700885 0.33165,-1.342716 0.67771,-2.747176 0.36048,-1.40446 0.73538,-2.901524 0.3749,-1.51251 0.76423,-3.210208 0.10093,-0.478442 0.2307,-1.064917 0.12978,-0.601912 0.24513,-1.203823 0.11535,-0.617344 0.18745,-1.188386 0.0721,-0.571043 0.0721,-1.01862 0,-0.401272 -0.0577,-0.632776 -0.0577,-0.246938 -0.21629,-0.246938 -0.53351,0 -1.1247,0.432141 -0.59119,0.416708 -1.1968,1.111219 -0.60561,0.694511 -1.1968,1.589661 -0.59119,0.895148 -1.12471,1.852033 -0.53351,0.94145 -0.99493,1.867465 -0.46142,0.92603 -0.79306,1.666843 -0.0721,0.154341 -0.21629,0.432147 -0.12977,0.262368 -0.36048,0.756243 -0.21629,0.478445 -0.54793,1.234697 -0.31722,0.756251 -0.76422,1.913765 -0.43258,1.157523 -1.00935,2.762614 -0.57678,1.6051 -1.29774,3.765803 -0.12977,0.370403 -0.46141,0.60191 -0.31723,0.2315 -0.66329,0.2315 -0.74981,0 -1.11029,-0.432139 -0.34606,-0.432139 -0.34606,-1.064918 0,-0.277805 0.0721,-0.617348 z"
       style="font-size:80px;font-family:'Franklin Gothic Demi Cond';-inkscape-font-specification:'MV Boli Italic';white-space:pre;fill:#ffffff;stroke-width:0.381896"
       id="path914" /><path
       d="m 213.43147,55.687844 q 0,-0.663647 0.33164,-1.126654 0.33164,-0.463008 0.87958,-0.617341 0.15861,-0.339542 0.49025,-0.910585 0.33164,-0.586479 0.8219,-1.265556 0.49025,-0.679077 1.11028,-1.358162 0.63445,-0.694507 1.38426,-1.250119 0.76422,-0.571042 1.62937,-0.926015 0.87958,-0.354972 1.86009,-0.354972 0.83632,0 1.45635,0.216069 0.62003,0.21607 1.02377,0.601911 0.40374,0.38584 0.60561,0.926014 0.20187,0.524744 0.20187,1.142085 0,0.524751 -0.12978,1.003189 -0.20187,0.864278 -0.7498,1.512494 -0.54793,0.648209 -1.29773,1.142085 -0.73539,0.478437 -1.61496,0.802542 -0.86516,0.324112 -1.74474,0.540181 -0.86515,0.21607 -1.67263,0.339542 -0.80748,0.108028 -1.39867,0.169764 -0.12978,0.277806 -0.23071,0.709945 -0.0865,0.416709 -0.0865,0.81798 0,0.895154 0.66329,1.38903 0.66329,0.493875 1.83125,0.493875 0.67771,0 1.29773,-0.15434 0.62003,-0.169772 1.16797,-0.416709 0.56235,-0.262368 1.0526,-0.555605 0.49026,-0.308674 0.894,-0.60191 0.51909,-0.370403 0.98051,-0.617341 0.47584,-0.262375 0.83632,-0.262375 0.36048,0 0.46141,0.200639 0.10094,0.185201 0.10094,0.401271 0,0.123465 -0.0144,0.246938 0,0.108035 -0.0144,0.185201 -0.0721,0.401279 -0.28839,0.80255 -0.21629,0.401271 -0.54793,0.694507 -1.49961,1.265557 -3.08573,1.805739 -1.5717,0.540174 -3.35969,0.540174 -0.34606,0 -0.8219,-0.04627 -0.46141,-0.04627 -0.96609,-0.185209 -0.50468,-0.138903 -0.99493,-0.401271 -0.49026,-0.262368 -0.87958,-0.694515 -0.3749,-0.432139 -0.62002,-1.064917 -0.23071,-0.632779 -0.23071,-1.527926 0,-0.725382 0.18745,-1.620529 -0.18745,-0.03085 -0.36048,-0.200639 -0.15862,-0.185202 -0.15862,-0.524737 z m 9.02646,-4.275109 q 0.0288,-0.07717 0.0288,-0.138903 0,-0.06177 0,-0.138903 0,-0.416709 -0.28839,-0.617341 -0.28838,-0.216069 -0.69212,-0.216069 -0.63445,0 -1.25448,0.354965 -0.60561,0.354972 -1.15354,0.895154 -0.53351,0.524736 -0.95167,1.142084 -0.41816,0.601911 -0.64887,1.095786 1.03819,-0.0926 1.90334,-0.293236 0.86516,-0.21607 1.49961,-0.524744 0.64887,-0.324104 1.03819,-0.709945 0.40374,-0.401271 0.51909,-0.848848 z m -1.67263,-4.182504 z"
       style="font-size:80px;font-family:'Franklin Gothic Demi Cond';-inkscape-font-specification:'MV Boli Italic';white-space:pre;fill:#ffffff;stroke-width:0.381896"
       id="path916" /><path
       d="m 226.22548,63.946337 q 0.21629,-0.895146 0.5191,-2.083537 0.3028,-1.188383 0.63445,-2.515676 0.34606,-1.327286 0.69212,-2.716315 0.34606,-1.389022 0.64887,-2.700878 0.0144,-0.06177 0.10093,-0.200639 0.0865,-0.154334 0.24513,-0.293236 0.15861,-0.154334 0.40374,-0.262369 0.24513,-0.108034 0.57677,-0.108034 0.24513,0 0.47584,0.06177 0.23071,0.04627 0.40374,0.15434 0.18745,0.108035 0.28838,0.293237 0.11535,0.169771 0.11535,0.401271 0,0.04634 0,0.108042 0,0.04627 -0.0145,0.0926 l -0.40374,1.63596 q -0.67771,2.747184 -1.38425,5.509797 -0.69213,2.762614 -1.35541,5.540666 -0.0288,0.0926 -0.0865,0.2315 -0.0577,0.138903 -0.15861,0.277806 -0.10094,0.138903 -0.24513,0.231507 -0.14419,0.0926 -0.34606,0.0926 -0.3749,0 -0.66329,-0.169763 -0.28838,-0.154341 -0.49026,-0.401279 -0.20186,-0.246938 -0.3028,-0.540174 -0.10094,-0.293236 -0.10094,-0.555612 0,-0.07717 0,-0.138903 0,-0.06177 0.0288,-0.138903 z m 3.76343,-15.973795 q 0.0721,-0.324105 0.25955,-0.78712 0.18745,-0.463014 0.66329,-0.833417 0.23071,-0.138911 0.56235,-0.246938 0.33165,-0.123473 0.47583,-0.123473 0.1442,0 0.28839,0.108035 0.15861,0.108035 0.27397,0.231507 0.14419,0.154334 0.27397,0.339543 0.36048,0.03085 0.46141,0.277806 0.11536,0.246937 0.11536,0.58648 0,0.246937 -0.0433,0.447577 -0.0433,0.200631 -0.0721,0.324104 -0.0865,0.324104 -0.33165,0.601918 -0.24513,0.262368 -0.56236,0.463007 -0.31721,0.185202 -0.66328,0.293236 -0.34606,0.108043 -0.60561,0.108043 -0.33165,0 -0.5191,-0.123473 -0.17303,-0.123465 -0.44699,-0.524744 -0.15861,-0.231507 -0.18745,-0.354972 -0.0144,-0.138911 -0.0144,-0.231508 0,-0.169771 0.0144,-0.293243 0.0288,-0.138903 0.0577,-0.262368 z"
       style="font-size:80px;font-family:'Franklin Gothic Demi Cond';-inkscape-font-specification:'MV Boli Italic';white-space:pre;fill:#ffffff;stroke-width:0.381896"
       id="path918" /><path
       d="m 238.15106,55.268296 q 0,-1.296425 0.27396,-2.685455 0.27397,-1.404452 0.57677,-2.685439 -0.37489,-0.01542 -0.76421,-0.123473 -0.38933,-0.108035 -0.70655,-0.293236 -0.31723,-0.185202 -0.5191,-0.447577 -0.20187,-0.277806 -0.20187,-0.632779 0,-0.138903 0.0577,-0.354972 0.0577,-0.21607 0.15862,-0.416702 0.11535,-0.216077 0.28839,-0.35498 0.17302,-0.154333 0.38932,-0.154333 h 1.93217 q 0.27397,0 0.37491,-0.246938 0.10094,-0.262368 0.15861,-0.509306 0.18745,-0.895146 0.34606,-1.543363 0.17304,-0.663646 0.28839,-1.111231 0.11535,-0.463004 0.17303,-0.74081 0.0721,-0.293236 0.0721,-0.463006 0,-0.200636 -0.0145,-0.385839 -0.0144,-0.185203 -0.0144,-0.509312 v -0.154334 q 0,-0.123469 0.0144,-0.324105 0.0288,-0.20064 0.1442,-0.571046 0.0865,-0.293235 0.31722,-0.55561 0.23071,-0.262369 0.6777,-0.262369 0.38932,0 0.66329,0.16977 0.27397,0.16977 0.447,0.447573 0.17303,0.277807 0.25954,0.632777 0.0865,0.354974 0.0865,0.709948 0,0.385839 -0.0721,0.694511 l -1.05261,4.321419 q 0.77864,-0.138903 1.38425,-0.262376 0.60561,-0.123465 1.21122,-0.246938 0.66329,-0.138895 1.13912,-0.262368 0.49025,-0.123465 0.83631,-0.200639 0.34607,-0.0926 0.57678,-0.138903 0.24513,-0.06169 0.40374,-0.06169 0.2307,0 0.46141,0.04627 0.24514,0.03085 0.41817,0.123465 0.18745,0.0926 0.3028,0.262376 0.11536,0.169771 0.11536,0.447569 0,0.370411 -0.1442,0.663647 -0.12977,0.277806 -0.34606,0.493876 -0.21629,0.200639 -0.49026,0.339542 -0.27396,0.123465 -0.54793,0.185201 -0.23071,0.04627 -0.60561,0.138903 -0.36048,0.0926 -0.80748,0.20064 -0.43258,0.108034 -0.90841,0.231499 -0.47584,0.123473 -0.92284,0.246938 -0.66329,0.185202 -1.13912,0.308674 -0.46142,0.123465 -0.79306,0.185202 -0.33164,0.06177 -0.54793,0.0926 -0.20187,0.03085 -0.33165,0.03085 -0.27396,0.879716 -0.47583,1.728564 -0.20187,0.848848 -0.34606,1.589662 -0.12978,0.725375 -0.20187,1.311855 -0.0577,0.571042 -0.0577,0.895147 0,0.416709 0.0721,0.802549 0.0721,0.370403 0.24513,0.648209 0.17303,0.277806 0.46141,0.447577 0.30281,0.154334 0.74981,0.154334 0.76422,0 1.4996,-0.447577 0.73538,-0.44757 1.39867,-1.126647 0.67771,-0.694515 1.2689,-1.512495 0.60561,-0.81798 1.11028,-1.558793 0.17304,-0.277806 0.447,-0.277806 0.0865,0 0.20188,0.03085 0.12976,0.03085 0.24512,0.108035 0.11535,0.07717 0.18745,0.200632 0.0865,0.123472 0.0865,0.293243 0,0.123465 -0.0145,0.185202 -0.23071,0.956883 -0.72096,1.929196 -0.47584,0.95689 -0.98051,1.929204 -0.17304,0.339542 -0.46142,0.663646 -0.27397,0.324105 -0.60561,0.632779 -0.33164,0.293236 -0.69212,0.571042 -0.36049,0.262368 -0.67771,0.478445 -0.54794,0.370403 -1.1968,0.509306 -0.64887,0.138903 -1.25448,0.138903 -0.93726,0 -1.67264,-0.35498 -0.72096,-0.370403 -1.22564,-0.987744 -0.49025,-0.632778 -0.7498,-1.466189 -0.25955,-0.833417 -0.25955,-1.7903 z"
       style="font-size:80px;font-family:'Franklin Gothic Demi Cond';-inkscape-font-specification:'MV Boli Italic';white-space:pre;fill:#ffffff;stroke-width:0.381896"
       id="path920" /><path
       d="m 251.42627,49.820131 q 0.21629,-0.941453 0.66328,-1.990933 0.46142,-1.064918 1.19681,-2.145273 0.73538,-1.080348 1.75914,-2.114403 1.0382,-1.034045 2.39361,-1.929187 0.21629,-0.138901 0.66328,-0.293242 0.447,-0.169761 0.92284,-0.200629 0.56235,-0.648211 1.51402,-0.648211 1.12471,0 1.88893,0.617343 0.77864,0.601905 1.28332,1.651381 0.15861,0.33954 0.28838,0.663642 0.1442,0.324102 0.23071,0.694513 0.10093,0.354972 0.15861,0.771681 0.0577,0.416709 0.0577,0.941445 0,1.219259 -0.36049,2.484808 -0.36048,1.265565 -1.02377,2.469378 -0.66328,1.203828 -1.61496,2.315044 -0.93725,1.095786 -2.09079,1.975502 -0.77864,0.601911 -1.73031,0.926015 -0.93726,0.339535 -2.10522,0.339535 -1.11029,0 -1.93219,-0.324105 -0.80747,-0.308666 -1.35541,-0.895146 -0.53351,-0.58648 -0.80747,-1.40446 -0.25955,-0.81798 -0.25955,-1.821162 0,-0.972313 0.25955,-2.083536 z m 2.3936,0.200639 q -0.0865,0.354972 -0.12978,0.679077 -0.0288,0.308674 -0.0288,0.60191 0,0.509306 0.11536,0.956883 0.12977,0.432139 0.40373,0.756244 0.27397,0.308674 0.67771,0.493875 0.41816,0.169771 1.00935,0.169771 1.09587,0 2.03312,-0.586472 0.95167,-0.601918 1.68706,-1.497065 0.73538,-0.895146 1.22563,-1.913765 0.50468,-1.03405 0.70655,-1.898328 0.12978,-0.540182 0.21629,-1.01862 0.10093,-0.478445 0.10093,-0.879716 0,-0.401278 -0.14419,-0.740813 -0.12977,-0.354973 -0.34606,-0.787112 -0.12978,-0.262376 -0.25955,-0.540181 -0.12977,-0.293234 -0.23071,-0.57104 -0.11535,0.216069 -0.24513,0.385838 -0.12976,0.154341 -0.38932,0.293236 -0.25954,0.123473 -0.70654,0.231508 -0.447,0.108035 -1.16796,0.185201 -0.47584,0.169771 -0.9661,0.524744 -0.49025,0.354972 -0.96609,0.833418 -0.46141,0.478437 -0.89399,1.034049 -0.41816,0.555612 -0.76422,1.142085 -0.33165,0.571042 -0.59119,1.126654 -0.24513,0.555604 -0.34606,1.018619 z"
       style="font-size:80px;font-family:'Franklin Gothic Demi Cond';-inkscape-font-specification:'MV Boli Italic';white-space:pre;fill:#ffffff;stroke-width:0.381896"
       id="path922" /><path
       d="m 266.94142,43.388389 q 0.27396,-1.188384 0.80747,-2.484802 0.54793,-1.296417 1.31216,-2.500223 0.76422,-1.219252 1.73031,-2.237859 0.98051,-1.03405 2.13405,-1.682262 0.37491,-0.21607 0.8219,-0.324105 0.447,-0.108032 0.90842,-0.108032 0.47584,0 0.87957,0.0926 0.41817,0.0926 0.70655,0.308674 0.3028,0.216067 0.47584,0.555607 0.17303,0.339533 0.17303,0.833406 0,0.370401 -0.10094,0.756247 -0.10093,0.3704 -0.3028,0.679072 -0.20187,0.293237 -0.50468,0.478436 -0.3028,0.185201 -0.70654,0.185201 -0.31723,0 -0.59119,-0.123465 -0.25955,-0.123472 -0.50468,-0.277804 -0.12977,-0.0926 -0.24513,-0.154333 -0.11535,-0.07717 -0.27396,-0.138901 -0.57678,0.277804 -1.09586,0.740809 -0.50468,0.447568 -0.95168,1.003175 -0.43258,0.55561 -0.80747,1.188384 -0.36049,0.632776 -0.66329,1.265542 -0.28839,0.632774 -0.50468,1.25012 -0.20187,0.601906 -0.33164,1.11121 -0.10094,0.37041 -0.18746,0.848848 -0.0721,0.463015 -0.0721,0.910584 0,0.308674 0.0433,0.586473 0.0577,0.277806 0.18745,0.493875 0.12977,0.216077 0.34606,0.339543 0.21629,0.123472 0.53351,0.123472 0.50468,0 0.99494,-0.138903 0.50467,-0.138903 0.98051,-0.354972 0.47583,-0.216077 0.92283,-0.493876 0.46142,-0.293244 0.89399,-0.58648 0.27397,-0.185201 0.54794,-0.385841 0.27396,-0.200631 0.5191,-0.354972 0.24512,-0.154333 0.44698,-0.246938 0.2163,-0.108035 0.37491,-0.108035 0.21629,0 0.40374,0.123473 0.18745,0.108027 0.18745,0.385841 0,0.200631 -0.0865,0.447569 -0.20187,0.601911 -0.54794,1.080356 -0.34606,0.478437 -0.77863,0.864278 -0.41817,0.370411 -0.90842,0.663647 -0.47584,0.293236 -0.95168,0.540174 -0.89399,0.509306 -1.81683,0.771681 -0.90841,0.246938 -1.52844,0.246938 -0.20187,0 -0.47583,-0.04627 -0.27397,-0.04634 -0.47584,-0.138903 -1.16796,-0.540174 -1.70148,-1.450758 -0.53351,-0.910584 -0.53351,-2.160704 0,-0.540181 0.0721,-1.126654 0.0865,-0.60191 0.24514,-1.250117 z"
       style="font-size:80px;font-family:'Franklin Gothic Demi Cond';-inkscape-font-specification:'MV Boli Italic';white-space:pre;fill:#ffffff;stroke-width:0.381896"
       id="path924" /><path
       id="path997"
       style="fill:#ffffff;stroke-width:0.205706"
       d="m 244.29281,11.183694 a 6.9574745,6.9574418 0 0 1 -6.95747,6.957442 6.9574745,6.9574418 0 0 1 -6.95748,-6.957442 6.9574745,6.9574418 0 0 1 6.95748,-6.9574414 6.9574745,6.9574418 0 0 1 6.95747,6.9574414 z" /><path
       id="path997-9"
       style="fill:#ffffff;stroke-width:0.205706"
       d="m 264.24991,20.870671 a 6.9574745,6.9574418 0 0 1 -6.95748,6.957441 6.9574745,6.9574418 0 0 1 -6.95747,-6.957441 6.9574745,6.9574418 0 0 1 6.95747,-6.957442 6.9574745,6.9574418 0 0 1 6.95748,6.957442 z" /><path
       id="path997-3"
       style="fill:#ffffff;stroke-width:0.205706"
       d="m 222.28447,15.475078 a 6.9574745,6.9574418 0 0 1 -6.95747,6.957442 6.9574745,6.9574418 0 0 1 -6.95748,-6.957442 6.9574745,6.9574418 0 0 1 6.95748,-6.9574415 6.9574745,6.9574418 0 0 1 6.95747,6.9574415 z" /><path
       id="path997-99"
       style="fill:#ffffff;stroke-width:0.205706"
       d="m 265.03843,76.81443 a 6.9574745,6.9574418 0 0 1 -6.95748,6.957441 6.9574745,6.9574418 0 0 1 -6.95747,-6.957441 6.9574745,6.9574418 0 0 1 6.95747,-6.957442 6.9574745,6.9574418 0 0 1 6.95748,6.957442 z" /><path
       id="path997-64"
       style="fill:#ffffff;stroke-width:0.205706"
       d="m 245.27021,86.105766 a 6.9574745,6.9574418 0 0 1 -6.95747,6.957442 6.9574745,6.9574418 0 0 1 -6.95748,-6.957442 6.9574745,6.9574418 0 0 1 6.95748,-6.957441 6.9574745,6.9574418 0 0 1 6.95747,6.957441 z" /><path
       id="path997-4"
       style="fill:#ffffff;stroke-width:0.205706"
       d="m 223.92494,82.587736 a 6.9574745,6.9574418 0 0 1 -6.95748,6.957441 6.9574745,6.9574418 0 0 1 -6.95747,-6.957441 6.9574745,6.9574418 0 0 1 6.95747,-6.957442 6.9574745,6.9574418 0 0 1 6.95748,6.957442 z" /></g></svg>
